HIERARCHY
ROOT root
{
	OFFSET 0.000000 0.000000 0.000000
	CHANNELS 6 Xposition Yposition Zposition Zrotation Yrotation Xrotation
	JOINT lhip
	{
		OFFSET 0.058581 -0.082280 -0.017664
		CHANNELS 3 Zrotation Yrotation Xrotation
		JOINT lknee
		{
			OFFSET 0.043451 -0.386469 0.008037
			CHANNELS 3 Zrotation Yrotation Xrotation
			JOINT lankle
			{
				OFFSET -0.014790 -0.426874 -0.037428
				CHANNELS 3 Zrotation Yrotation Xrotation
				JOINT ltoe
				{
					OFFSET 0.041054 -0.060286 0.122042
					CHANNELS 3 Zrotation Yrotation Xrotation
					End Site
					{
						OFFSET 0.000000 0.000000 0.000000
					}
				}
			}
		}
	}
	JOINT rhip
	{
		OFFSET -0.060310 -0.090513 -0.013543
		CHANNELS 3 Zrotation Yrotation Xrotation
		JOINT rknee
		{
			OFFSET -0.043257 -0.383688 -0.004843
			CHANNELS 3 Zrotation Yrotation Xrotation
			JOINT rankle
			{
				OFFSET 0.019056 -0.420046 -0.034562
				CHANNELS 3 Zrotation Yrotation Xrotation
				JOINT rtoe
				{
					OFFSET -0.034840 -0.062106 0.130323
					CHANNELS 3 Zrotation Yrotation Xrotation
					End Site
					{
						OFFSET 0.000000 0.000000 0.000000
					}
				}
			}
		}
	}
	JOINT lowerback
	{
		OFFSET 0.004439 0.124404 -0.038385
		CHANNELS 3 Zrotation Yrotation Xrotation
		JOINT upperback
		{
			OFFSET 0.004488 0.137956 0.026820
			CHANNELS 3 Zrotation Yrotation Xrotation
			JOINT chest
			{
				OFFSET -0.002265 0.056032 0.002855
				CHANNELS 3 Zrotation Yrotation Xrotation
				JOINT lowerneck
				{
					OFFSET -0.013390 0.211636 -0.033468
					CHANNELS 3 Zrotation Yrotation Xrotation
					JOINT upperneck
					{
						OFFSET 0.010113 0.088937 0.050410
						CHANNELS 3 Zrotation Yrotation Xrotation
						End Site
						{
							OFFSET 0.000000 0.000000 0.000000
						}
					}
				}
				JOINT lclavicle
				{
					OFFSET 0.071702 0.114000 -0.018898
					CHANNELS 3 Zrotation Yrotation Xrotation
					JOINT lshoulder
					{
						OFFSET 0.122921 0.045205 -0.019046
						CHANNELS 3 Zrotation Yrotation Xrotation
						JOINT lelbow
						{
							OFFSET 0.255332 -0.015649 -0.022946
							CHANNELS 3 Zrotation Yrotation Xrotation
							JOINT lwrist
							{
								OFFSET 0.265709 0.012698 -0.007375
								CHANNELS 3 Zrotation Yrotation Xrotation
								End Site
								{
									OFFSET 0.000000 0.000000 0.000000
								}
							}
						}
					}
				}
				JOINT rclavicle
				{
					OFFSET -0.082954 0.112472 -0.023707
					CHANNELS 3 Zrotation Yrotation Xrotation
					JOINT rshoulder
					{
						OFFSET -0.113228 0.046853 -0.008472
						CHANNELS 3 Zrotation Yrotation Xrotation
						JOINT relbow
						{
							OFFSET -0.260127 -0.014369 -0.031269
							CHANNELS 3 Zrotation Yrotation Xrotation
							JOINT rwrist
							{
								OFFSET -0.269108 0.006794 -0.006027
								CHANNELS 3 Zrotation Yrotation Xrotation
								End Site
								{
									OFFSET 0.000000 0.000000 0.000000
								}
							}
						}
					}
				}
			}
		}
	}
}
MOTION
Frames: 16
Frame Time: 0.033333
-1.234519 0.312505 1.011198 101.128071 -0.582697 84.892858 -3.915393 3.607094 19.002868 -3.940470 -21.369459 2.606535 4.612053 5.520280 -11.318708 0.000000 -0.000000 0.000000 -4.514724 -3.421821 -24.890848 -0.426839 -12.262795 6.701709 13.438339 -11.381364 0.940096 0.000000 -0.000000 0.000000 -2.197237 -5.621641 17.754024 -0.931344 -2.789560 -4.807666 -0.280605 -5.579539 1.106614 2.313958 12.707031 -13.628660 0.233338 3.920931 11.655921 -25.598767 -5.623238 0.048920 -47.515580 -19.588328 9.851638 5.898121 -33.387759 2.063899 -0.696004 -7.322487 -3.007489 32.584752 3.581840 -2.888374 50.108276 9.238388 13.293276 -16.203861 19.279613 -18.026505 5.511624 3.765145 -4.742190 
-1.206873 0.311899 1.009472 101.525172 -0.515947 85.268351 -3.308267 3.711361 19.946669 -4.107080 -22.074825 3.745679 3.968225 5.516680 -11.207017 0.000000 -0.000000 0.000000 -4.113553 -2.860284 -24.577919 -0.189239 -12.401327 9.017129 12.359401 -11.606104 -0.052863 0.000000 -0.000000 0.000000 -2.001199 -6.167588 17.628796 -0.755957 -3.052753 -4.459632 -0.369777 -5.731188 1.075414 2.372255 13.182648 -13.918364 0.096710 4.285007 11.554077 -26.002694 -5.782924 0.135366 -47.099088 -19.215163 9.578505 5.909039 -31.747741 2.316970 -1.282601 -7.370053 -2.372899 32.894840 3.616358 -3.059378 49.725153 9.066194 13.146567 -15.745839 18.816243 -17.730682 6.071925 3.890181 -4.959361 
-1.176417 0.310595 1.008431 101.730339 -0.822865 86.163106 -3.326217 3.462346 20.113891 -4.276003 -22.136286 5.531720 3.432846 5.360555 -10.386618 0.000000 -0.000000 0.000000 -3.296713 -2.197825 -23.484646 -0.257308 -10.585512 10.393994 11.084318 -10.645415 -0.730613 0.000000 -0.000000 0.000000 -2.151228 -5.974928 16.628658 -0.582845 -3.372139 -4.111330 -0.405766 -6.091916 1.040958 2.171887 13.533892 -14.011397 0.162886 4.655049 11.134473 -26.256043 -5.823736 0.372296 -47.322681 -18.739244 9.307947 6.456851 -28.926269 1.797091 -1.426770 -6.856846 -1.863352 32.945374 3.425856 -2.972970 49.922496 8.500544 13.196429 -15.509849 17.967759 -17.236023 6.200293 3.517580 -5.567361 
-1.144557 0.309202 1.009516 101.570495 -1.047501 87.285764 -3.860513 2.779355 19.239724 -4.244306 -21.761662 8.559670 2.528421 5.220947 -8.290084 0.000000 -0.000000 0.000000 -2.157026 -1.977589 -22.009976 -1.085491 -11.031764 8.230469 8.948547 -11.966368 2.440586 0.000000 -0.000000 0.000000 -2.081312 -5.756964 15.780739 -0.598546 -3.488831 -4.514625 -0.272511 -6.286681 1.066283 2.275868 12.993125 -13.467773 0.427915 5.591052 11.934359 -26.909955 -5.103670 0.348507 -47.602398 -18.460881 8.726701 6.733694 -25.006192 1.440582 -2.396552 -6.598268 -0.842125 33.008120 2.772546 -2.881904 50.032089 8.267072 13.566341 -14.733178 16.304977 -16.829718 6.842189 3.642218 -5.731271 
-1.111791 0.308190 1.013879 100.739930 -0.743561 88.184652 -4.046031 2.139022 18.042035 -4.568837 -20.610212 12.625809 1.410341 5.080069 -4.225147 0.000000 -0.000000 0.000000 -1.495912 -1.936441 -20.728409 -0.305888 -10.244535 6.975147 8.460536 -11.413998 6.957844 0.000000 -0.000000 0.000000 -1.399902 -5.546197 14.889547 -0.428549 -3.348322 -4.217634 -0.317937 -6.091005 0.751321 1.893249 12.009955 -13.005668 0.264099 6.070745 11.852898 -27.982898 -4.305294 0.375302 -47.615901 -17.979388 8.008693 7.498816 -21.261896 -0.273975 -3.013583 -5.791839 -0.236123 33.052527 2.141654 -2.708500 50.079316 8.174628 13.654896 -13.638281 14.637083 -16.548931 7.196823 3.448173 -5.714235 
-1.076317 0.306003 1.020221 99.309980 0.129692 88.439509 -3.272622 1.980875 17.015565 -5.329826 -19.077583 17.122906 -1.061907 4.690898 0.920176 0.000000 -0.000000 0.000000 -0.389182 -0.786721 -18.829164 0.353634 -9.865254 7.452885 6.777138 -10.190327 6.650443 0.000000 -0.000000 0.000000 -0.528878 -5.700959 14.810122 -0.222591 -2.786492 -4.246077 -0.339610 -5.292857 0.379195 1.887266 11.650065 -12.449676 -0.046172 6.372021 11.888005 -28.673247 -3.262944 0.311530 -47.828625 -16.888162 7.419415 8.140668 -18.212839 -1.773637 -3.716736 -5.249585 -0.335092 33.118367 1.901035 -2.246786 50.312491 7.775365 13.581881 -12.822701 12.558533 -16.142195 7.669896 2.952993 -5.966640 
-1.040073 0.303153 1.025880 97.809785 0.681499 88.554001 -2.632532 1.727281 15.089123 -6.402066 -16.900836 22.645471 -3.907640 3.669108 8.512174 0.000000 -0.000000 0.000000 0.932803 -0.305488 -16.681831 1.000458 -8.136868 7.609035 4.575829 -9.127873 5.787113 0.000000 -0.000000 0.000000 -0.340557 -4.990663 14.064762 0.238385 -2.347216 -3.444756 -0.163555 -4.928657 0.293224 1.568462 11.558537 -12.079074 0.335606 6.549058 12.084865 -29.012540 -2.121024 0.457891 -47.935133 -15.913968 7.076103 8.451483 -16.340243 -2.641237 -4.207937 -5.034584 -1.376882 33.355383 1.599100 -1.701188 50.284964 7.962093 13.502920 -11.742039 10.517282 -15.348829 7.954803 2.534817 -6.226769 
-1.005101 0.299713 1.029796 96.481175 0.796582 88.690562 -2.119013 0.873974 11.844527 -8.340802 -14.494862 29.596978 -7.251873 2.685781 15.072646 0.000000 -0.000000 0.000000 2.178269 -0.529269 -14.436406 1.103131 -7.045025 7.388231 2.337428 -7.937120 4.996207 0.000000 -0.000000 0.000000 -0.737256 -3.845867 13.824742 0.569746 -2.249302 -3.325145 0.109510 -4.440639 0.125210 1.642204 11.562990 -11.059292 1.034945 6.466032 12.111693 -28.719834 -0.839907 0.623131 -47.971690 -14.704243 7.017420 8.143529 -16.053434 -1.949863 -4.784222 -4.539925 -2.046951 33.646844 0.988858 -1.189949 50.744596 7.616431 13.286607 -11.266924 8.906550 -14.458913 8.106339 2.078865 -6.636259 
-0.972071 0.298101 1.032203 96.070745 0.651806 88.571070 -1.954820 -0.006946 8.018000 -10.157704 -12.752396 37.380171 -7.442162 2.103732 18.150706 0.000000 -0.000000 0.000000 2.616368 -0.714029 -12.228853 1.333014 -5.748358 7.498018 0.482122 -8.410261 4.037770 0.000000 -0.000000 0.000000 -1.121430 -2.884539 13.996609 0.932566 -2.208755 -3.240844 0.306638 -4.146680 0.400186 1.933824 10.387010 -11.189604 -0.261697 6.156685 12.202444 -29.205447 0.190428 0.740498 -46.791184 -13.659924 6.900759 7.466056 -17.519835 -0.578616 -5.501970 -4.404828 -2.681511 34.001827 0.386262 -0.953741 50.865289 6.969351 13.198688 -11.096156 8.289247 -14.264482 8.106689 1.404116 -6.932359 
-0.939814 0.296547 1.033357 95.551330 0.400112 87.890354 -1.669225 -0.779770 4.292806 -11.628104 -9.995186 44.947124 -5.145135 2.019614 15.462026 0.000000 -0.000000 0.000000 2.881696 -0.854693 -9.718954 1.424185 -4.969695 8.399689 -0.406478 -8.479748 1.630238 0.000000 -0.000000 0.000000 -1.614070 -1.895247 14.929220 0.999226 -2.024030 -3.506713 0.371199 -3.622011 0.749637 1.752567 10.507932 -10.524398 0.739386 6.314939 12.118208 -28.844206 0.932538 0.991406 -46.404946 -12.618492 6.523916 7.392145 -19.497529 0.483204 -5.375725 -4.421553 -4.073807 34.237185 0.012750 -0.419147 51.108191 6.296398 12.713153 -10.555747 7.316840 -13.244376 7.886134 0.748144 -7.290387 
-0.909006 0.294672 1.033846 95.114100 0.168769 87.658543 -1.003624 -1.481757 -0.281857 -10.854471 -5.878599 50.879125 -1.658550 3.570913 10.284885 0.000000 -0.000000 0.000000 3.200046 -1.131885 -7.361759 1.339799 -3.718328 8.429085 -0.946304 -9.207273 -0.107512 0.000000 -0.000000 0.000000 -2.073632 -0.601604 15.221461 1.141605 -1.708268 -3.651928 0.555725 -3.176530 1.526333 1.967849 9.939146 -10.724667 0.903496 6.142835 12.439077 -28.968759 1.616546 1.014776 -45.928057 -12.344305 6.003316 7.561378 -20.902907 0.712048 -5.264239 -4.283398 -5.637252 34.489699 -0.300032 -0.329238 51.059203 5.923449 12.502280 -9.801347 5.534611 -12.907593 7.522891 0.135931 -7.583031 
-0.879079 0.293423 1.034571 94.384734 -0.216844 87.164781 -0.366045 -1.805801 -4.224323 -9.754578 -2.527848 54.316055 -0.076354 5.362618 5.684567 0.000000 -0.000000 0.000000 3.108750 -1.824286 -4.983391 1.450901 -2.425543 8.863516 -0.914194 -9.249937 -2.129615 0.000000 -0.000000 0.000000 -2.598360 0.857738 15.734870 1.161796 -1.238027 -3.689316 0.817396 -2.471494 2.189577 1.942805 9.236032 -10.809199 1.048219 5.279402 12.487361 -28.961125 2.078785 0.397108 -46.065458 -12.469135 5.396157 8.094935 -21.287919 -0.238813 -5.021247 -4.082057 -7.228518 34.688654 -0.581987 -0.147460 50.957986 5.122730 12.396084 -9.242600 4.146074 -12.596453 7.309502 -0.685693 -7.638679 
-0.849968 0.293299 1.034912 93.712374 -0.726104 86.968683 -0.074441 -2.517139 -8.073919 -8.962023 -0.309340 55.395588 1.013820 6.477596 2.630047 0.000000 -0.000000 0.000000 2.910835 -2.381463 -2.859481 1.187256 -1.260900 9.090638 -0.723835 -9.126883 -3.826512 0.000000 -0.000000 0.000000 -2.935109 2.241693 16.214353 1.114963 -0.775267 -4.123577 1.028033 -1.910197 2.892611 2.199676 8.920949 -10.148419 1.178663 5.161359 13.122632 -28.974987 2.812139 -0.123033 -46.243916 -12.396644 5.144796 8.329591 -22.005133 -0.830473 -4.600496 -3.924934 -8.375085 34.644827 -1.309263 0.177802 51.159710 4.157232 12.349667 -9.093973 3.236054 -12.521056 7.358848 -1.094253 -7.624056 
-0.822186 0.293707 1.034898 92.966469 -1.390517 86.710866 -0.179218 -3.264263 -11.432927 -8.304016 1.006925 54.232846 1.406022 6.988806 -0.099909 0.000000 -0.000000 0.000000 2.548706 -2.986607 -0.642498 0.741803 0.112567 9.056986 -0.465466 -9.035285 -5.378565 0.000000 -0.000000 0.000000 -3.089657 3.643100 16.879163 1.039209 -0.574490 -4.346118 1.091165 -1.460963 3.317282 1.962308 7.739056 -10.296488 -0.390978 4.182482 13.464466 -29.094936 3.313847 -0.436129 -46.198951 -12.128261 4.901972 8.674732 -22.840540 -1.338579 -4.318326 -4.217142 -9.480025 34.240366 -2.180434 0.495488 51.643205 3.314795 12.091085 -8.947520 2.675981 -12.404635 7.358510 -1.397358 -7.615804 
-0.794328 0.294491 1.034142 92.371534 -2.115939 86.647063 -0.406364 -4.371426 -14.351796 -8.206906 1.695974 50.997577 2.032686 7.376513 -1.767082 0.000000 -0.000000 0.000000 2.091659 -3.473985 1.182671 0.262599 1.462236 9.366217 -0.392798 -9.353568 -7.101333 0.000000 -0.000000 0.000000 -3.221126 4.720710 17.326973 0.797698 -0.539878 -4.744584 0.884355 -1.141862 3.702769 2.014417 7.939195 -9.011222 0.397378 4.240440 14.017347 -28.624549 4.440970 -0.448901 -46.753970 -11.822985 4.916350 9.268920 -24.120257 -1.277108 -3.407386 -3.953773 -10.359631 33.712808 -3.228838 0.758982 52.549255 2.166584 12.301922 -8.924301 2.683837 -11.462097 7.355112 -1.605195 -7.638275 
-0.767426 0.295770 1.032995 91.769082 -2.699760 86.730590 -0.553611 -5.010662 -16.907045 -7.848393 1.958311 45.964448 1.528801 7.571469 -2.714562 0.000000 -0.000000 0.000000 1.454288 -3.610857 3.339867 0.001146 2.188495 8.730229 -0.054596 -9.274148 -8.133515 0.000000 -0.000000 0.000000 -3.016216 5.402917 17.597546 0.359851 -0.541544 -4.825497 0.593318 -0.853494 4.287144 1.899533 8.266161 -8.962712 0.445112 4.029580 13.921381 -28.438777 5.425499 -0.944040 -46.995214 -11.472486 4.925623 9.669274 -25.070373 -1.761828 -2.763177 -3.986646 -10.702838 33.232558 -4.096347 0.735807 53.157841 1.405782 12.413179 -8.580021 2.503721 -11.051229 7.674618 -1.502278 -7.524345 
